<svg xmlns="http://www.w3.org/2000/svg" viewBox="0 0 20 13" fill="currentColor"><g transform="translate(-56,-24)"><path d="M64.24 29.933C64.2656 29.9647 64.3041 29.9706 64.3365 29.9803C64.6557 30.0758 64.9526 30.2199 65.2304 30.4071C65.4141 30.5309 65.5792 30.6772 65.7278 30.8433C65.9225 31.0611 66.0859 31.3013 66.2066 31.5708C66.2824 31.7399 66.343 31.9142 66.3937 32.0938C66.4469 32.2819 66.4777 32.4733 66.5096 32.6649C66.5244 32.7543 66.5303 32.8454 66.534 32.9362C66.5389 33.0559 66.5446 33.1764 66.542 33.2954C66.5377 33.5156 66.5224 33.736 66.4828 33.9539C66.4725 34.0097 66.4725 34.0741 66.46 34.1261C66.4455 34.1861 66.427 34.249 66.4091 34.3098C66.355 34.4924 66.294 34.6714 66.2126 34.8436C66.0979 35.0864 65.9561 35.3101 65.791 35.5191C65.5114 35.8736 65.1641 36.1399 64.7786 36.3577C64.5358 36.495 64.283 36.6079 64.0197 36.6964C63.8201 36.7634 63.618 36.8225 63.4127 36.8642C63.2129 36.9048 63.0116 36.9377 62.8086 36.9609C62.5609 36.9891 62.313 36.9985 62.0644 36.9985C60.0665 36.9991 58.0685 36.9985 56.0706 37C56.0171 37 56 36.99 56 36.9297C56.0017 32.6437 56.0017 28.3574 56 24.0714C56 24.0126 56.0145 24 56.0697 24C58.0048 24.0015 59.9398 24.0012 61.8748 24.0015C61.9804 24.0015 62.0864 23.9994 62.1914 24.0076C62.3323 24.0188 62.4738 24.017 62.6142 24.0297C62.8066 24.0467 62.9999 24.0647 63.1904 24.0982C63.3467 24.1258 63.503 24.1567 63.6581 24.1964C63.8059 24.2343 63.9511 24.2784 64.0945 24.3286C64.3061 24.4021 64.5042 24.505 64.6964 24.6229C64.8806 24.736 65.048 24.8698 65.196 25.0288C65.3255 25.1675 65.4391 25.3195 65.5385 25.4832C65.6401 25.6505 65.7133 25.8313 65.7748 26.0162C65.8246 26.1664 65.8627 26.321 65.8815 26.4806C65.8978 26.6182 65.9191 26.7543 65.9274 26.8933C65.9325 26.9827 65.9274 27.0717 65.9359 27.1605C65.9447 27.2537 65.9496 27.3466 65.9382 27.4392C65.912 27.6493 65.8946 27.8601 65.8434 28.0679C65.7836 28.3116 65.6956 28.5403 65.5726 28.7554C65.4978 28.8865 65.4084 29.0071 65.3113 29.1217C65.2168 29.2334 65.1166 29.3398 65.0053 29.4312C64.9056 29.5132 64.8043 29.5949 64.6947 29.6646C64.6013 29.7237 64.5088 29.7842 64.4134 29.8404C64.3573 29.8736 64.2987 29.9021 64.2403 29.9333L64.24 29.933ZM58.7694 32.9947C58.7694 33.5682 58.7703 34.1417 58.768 34.7152C58.768 34.7675 58.7788 34.7807 58.8298 34.7807C59.7963 34.7784 60.7626 34.779 61.7291 34.7766C61.8187 34.7766 61.9084 34.7792 61.9992 34.7707C62.2136 34.751 62.4263 34.7228 62.6332 34.6628C62.9265 34.5782 63.1889 34.4394 63.4008 34.2037C63.641 33.9365 63.7458 33.6152 63.7654 33.2625C63.7763 33.0679 63.7777 32.8715 63.7478 32.6761C63.717 32.4753 63.6723 32.2816 63.5884 32.0961C63.5323 31.973 63.4583 31.8657 63.3686 31.7695C63.2018 31.5905 62.9956 31.4733 62.7733 31.3845C62.6944 31.353 62.6144 31.3245 62.5319 31.3031C62.2822 31.2381 62.0274 31.214 61.7718 31.2131C60.7905 31.2096 59.8094 31.2119 58.8281 31.2108C58.7834 31.2108 58.7686 31.2199 58.7689 31.269C58.7706 31.8442 58.77 32.4198 58.77 32.995L58.7694 32.9947ZM58.7694 27.7402C58.7694 28.2237 58.7703 28.7075 58.7683 29.1911C58.7683 29.2457 58.7768 29.2648 58.8361 29.2646C59.771 29.2616 60.7062 29.261 61.6411 29.2619C61.7837 29.2619 61.9269 29.2546 62.0641 29.2228C62.2207 29.1867 62.3767 29.1405 62.5222 29.0655C62.7434 28.9518 62.9361 28.8048 63.066 28.5811C63.1189 28.49 63.1673 28.3939 63.1944 28.2951C63.2217 28.1958 63.2368 28.0894 63.2482 27.9835C63.282 27.6655 63.2664 27.3539 63.1445 27.0558C63.0694 26.8718 62.9527 26.7137 62.7998 26.5944C62.6816 26.5024 62.5478 26.4318 62.4058 26.3783C62.2526 26.3207 62.0935 26.2816 61.9358 26.2622C61.7601 26.2404 61.5816 26.2219 61.4025 26.2225C60.5416 26.2246 59.6805 26.2237 58.8196 26.2222C58.7763 26.2222 58.768 26.2366 58.7683 26.2778C58.7697 26.7651 58.7692 27.2528 58.7692 27.7402H58.7694Z" />
<path d="M75.8265 33.8501C75.806 33.913 75.7878 33.9706 75.7682 34.0279C75.6703 34.3145 75.5578 34.5947 75.4152 34.8607C75.3013 35.0729 75.1812 35.2813 75.0351 35.4724C74.8888 35.6637 74.7294 35.8439 74.5477 36C74.4953 36.045 74.4438 36.0955 74.3783 36.1276C74.3482 36.1423 74.3245 36.1808 74.2932 36.2031C74.0862 36.3519 73.8662 36.475 73.6362 36.5829C73.292 36.7443 72.9316 36.8445 72.5617 36.913C72.3699 36.9486 72.1763 36.9703 71.9815 36.985C71.706 37.0059 71.4301 37 71.1551 36.9903C70.9592 36.9832 70.7628 36.9559 70.5701 36.9192C70.5066 36.9071 70.4408 36.8965 70.3768 36.8807C70.2341 36.8448 70.0912 36.8095 69.9503 36.7657C69.6961 36.6867 69.4541 36.5773 69.2158 36.4586C69.1694 36.4356 69.1256 36.3895 69.082 36.3704C68.9695 36.3216 68.8736 36.2499 68.7754 36.1808C68.6439 36.0879 68.5183 35.9874 68.3999 35.876C68.3113 35.7928 68.2251 35.7069 68.1431 35.6176C68.0352 35.4994 67.931 35.378 67.843 35.2416C67.7969 35.1699 67.7405 35.1044 67.6956 35.0312C67.5783 34.8398 67.4655 34.6455 67.3779 34.4377C67.3272 34.3178 67.2839 34.194 67.2375 34.0726C67.1945 33.9597 67.1561 33.8436 67.1145 33.7305C67.0855 33.6517 67.0778 33.5582 67.0553 33.473C67.0248 33.3571 67.0046 33.2396 66.9833 33.1223C66.9653 33.0241 66.9579 32.9242 66.9457 32.8251C66.8982 32.4362 66.9021 32.0456 66.9147 31.6555C66.9198 31.4947 66.9394 31.3336 66.9653 31.1737C66.979 31.0891 66.9947 31.0062 67.0157 30.923C67.0416 30.8213 67.0513 30.7155 67.0784 30.6135C67.1444 30.363 67.2307 30.1205 67.3263 29.8804C67.3907 29.7184 67.4675 29.5644 67.5512 29.4139C67.6751 29.1917 67.8137 28.9788 67.9729 28.7816C68.085 28.6423 68.1995 28.5044 68.3279 28.3807C68.4101 28.3016 68.5044 28.2357 68.5852 28.1567C68.7079 28.0367 68.854 27.9527 68.9866 27.8489C69.0518 27.7981 69.1267 27.7619 69.1964 27.7184C69.3049 27.6505 69.4194 27.5917 69.5347 27.5373C69.6693 27.4738 69.8085 27.4212 69.9477 27.3683C70.038 27.3339 70.1296 27.2963 70.2205 27.2737C70.3164 27.2496 70.4155 27.229 70.5128 27.2069C70.6763 27.1702 70.8428 27.1564 71.0073 27.1293C71.0611 27.1205 71.1167 27.1235 71.1716 27.1188C71.3646 27.1026 71.5591 27.0879 71.7521 27.1076C71.8506 27.1176 71.9497 27.1188 72.0479 27.1243C72.1578 27.1308 72.2634 27.164 72.373 27.1655C72.3835 27.1655 72.3946 27.1752 72.4043 27.1731C72.4812 27.1576 72.5455 27.2046 72.6167 27.2163C72.804 27.2469 72.9825 27.3119 73.161 27.3733C73.3136 27.4259 73.4599 27.4985 73.6028 27.5764C73.7796 27.6728 73.9519 27.7769 74.1133 27.8989C74.2434 27.9971 74.3652 28.1055 74.4854 28.2163C74.5941 28.3166 74.6952 28.4239 74.7903 28.5364C74.9711 28.7501 75.1282 28.9827 75.2686 29.226C75.4021 29.4577 75.512 29.7011 75.6048 29.9541C75.6711 30.1352 75.7258 30.3192 75.7793 30.5044C75.8436 30.7263 75.8829 30.9539 75.9196 31.1811C75.9379 31.2928 75.9609 31.4056 75.9547 31.5218C75.9535 31.5447 75.9635 31.5758 75.9672 31.6038C75.9863 31.7446 75.9937 31.8865 75.9974 32.0285C76.0022 32.2081 76.0011 32.388 75.9882 32.5673C75.986 32.5973 75.9737 32.6249 75.9863 32.657C75.9945 32.6778 75.9803 32.6925 75.9558 32.6908C75.9393 32.6896 75.9225 32.6908 75.9057 32.6908C73.7631 32.6908 71.6206 32.6908 69.478 32.6908H69.408C69.4097 32.7231 69.412 32.7507 69.4122 32.7784C69.4131 32.8933 69.429 33.0068 69.4421 33.1205C69.4498 33.1878 69.4589 33.2563 69.4658 33.3236C69.472 33.3842 69.4979 33.4462 69.5082 33.5088C69.5298 33.6396 69.5825 33.7604 69.6209 33.8851C69.6423 33.9536 69.6793 34.022 69.7151 34.0864C69.8 34.2381 69.8911 34.3868 70.0183 34.5059C70.155 34.6337 70.303 34.744 70.4693 34.8307C70.668 34.9345 70.8789 34.9921 71.0956 35.0317C71.327 35.0741 71.5613 35.0723 71.7951 35.0658C71.8335 35.0647 71.8728 35.062 71.9121 35.0429C71.9411 35.0288 71.9787 35.0538 72.0186 35.0476C72.1191 35.0323 72.2187 35.0118 72.3149 34.983C72.7306 34.858 73.0867 34.632 73.3748 34.296C73.475 34.179 73.5573 34.05 73.6051 33.9012C73.6179 33.861 73.6356 33.8504 73.6749 33.8504C74.2545 33.8516 74.8341 33.8513 75.4137 33.8513H75.8246L75.8265 33.8501ZM71.4438 31.0453C72.0974 31.0453 72.7511 31.0453 73.4047 31.0453C73.4853 31.0453 73.4864 31.0453 73.4676 30.97C73.4337 30.8357 73.4132 30.6984 73.372 30.5658C73.3005 30.336 73.2182 30.1114 73.1004 29.9021C72.9438 29.6238 72.7434 29.3933 72.4598 29.2446C72.3294 29.1764 72.1916 29.1293 72.0527 29.0979C71.8904 29.0611 71.7219 29.0509 71.5548 29.0447C71.4646 29.0412 71.3743 29.0476 71.2841 29.0532C71.0791 29.0655 70.8792 29.0982 70.6845 29.167C70.5567 29.2122 70.4425 29.2822 70.3258 29.3504C70.182 29.4345 70.0605 29.5461 69.9449 29.6637C69.8931 29.7166 69.8472 29.7798 69.8051 29.8442C69.7191 29.9756 69.6329 30.1058 69.5816 30.2572C69.5372 30.3892 69.4891 30.52 69.4632 30.6581C69.4427 30.7678 69.4231 30.8765 69.4114 30.9879C69.4054 31.0453 69.4233 31.0459 69.4658 31.0456C70.1251 31.0447 70.7841 31.045 71.4435 31.045L71.4438 31.0453Z" />
<path d="M71.5266 26.1179C70.7007 26.1179 69.8749 26.117 69.049 26.1193C68.9906 26.1193 68.9804 26.102 68.9806 26.0464C68.9829 25.6067 68.9829 25.167 68.9806 24.7272C68.9804 24.6702 68.9963 24.6596 69.0484 24.6596C70.7022 24.6611 72.3559 24.6611 74.0094 24.6596C74.0555 24.6596 74.0717 24.667 74.0714 24.7205C74.0689 25.1678 74.0692 25.6152 74.0712 26.0626C74.0712 26.1088 74.0583 26.1185 74.0156 26.1185C73.1861 26.1173 72.3565 26.1176 71.5269 26.1176L71.5266 26.1179Z" /></g></svg>